<?xml version="1.0" encoding="utf-8"?>
<!-- Generator: Adobe Illustrator 25.0.0, SVG Export Plug-In . SVG Version: 6.00 Build 0)  -->
<svg version="1.1" id="Layer_1" xmlns="http://www.w3.org/2000/svg" xmlns:xlink="http://www.w3.org/1999/xlink" x="0px" y="0px"
	 viewBox="0 0 70 70" style="enable-background:new 0 0 70 70;" xml:space="preserve">
<style type="text/css">
	.st0{filter:url(#Adobe_OpacityMaskFilter);}
	.st1{fill-rule:evenodd;clip-rule:evenodd;fill:#FFFFFF;}
	.st2{mask:url(#b_1_);}
	.st3{fill-rule:evenodd;clip-rule:evenodd;fill:url(#SVGID_1_);}
	.st4{fill-rule:evenodd;clip-rule:evenodd;fill:#FFFFFF;fill-opacity:0.383;}
	.st5{fill-rule:evenodd;clip-rule:evenodd;fill-opacity:0.383;}
	.st6{opacity:0.324;fill-rule:evenodd;clip-rule:evenodd;fill:#393939;enable-background:new    ;}
	.st7{fill:#FFFFFF;}
</style>
<defs>
	<filter id="Adobe_OpacityMaskFilter" filterUnits="userSpaceOnUse" x="0" y="0" width="70" height="70">
		<feColorMatrix  type="matrix" values="1 0 0 0 0  0 1 0 0 0  0 0 1 0 0  0 0 0 1 0"/>
	</filter>
</defs>
<mask maskUnits="userSpaceOnUse" x="0" y="0" width="70" height="70" id="b_1_">
	<g class="st0">
		<path id="a_1_" class="st1" d="M4,0h61c4,0,5,1,5,5v60c0,4-1,5-5,5H4c-3,0-4-1-4-5V5C0,1,1,0,4,0z"/>
	</g>
</mask>
<g class="st2">
	
		<linearGradient id="SVGID_1_" gradientUnits="userSpaceOnUse" x1="-257.2571" y1="450.3755" x2="-258.2571" y2="449.3755" gradientTransform="matrix(70 0 0 -70 18078 31526.2891)">
		<stop  offset="0" style="stop-color:#3F66FF"/>
		<stop  offset="8.326057e-02" style="stop-color:#346BF3"/>
		<stop  offset="0.5" style="stop-color:#0084BC"/>
		<stop  offset="0.8029" style="stop-color:#1B85E7"/>
		<stop  offset="1" style="stop-color:#2A85FF"/>
	</linearGradient>
	<path class="st3" d="M0,0h70v70H0V0z"/>
	<path class="st4" d="M4,1h61c2.7,0,4.3,0.7,5,2V0H0v3C0.7,1.7,2,1,4,1z"/>
	<path class="st5" d="M4,69h61c2.7,0,4.3-1,5-3v4H0v-4C0.7,68,2,69,4,69z"/>
</g>
<path class="st6" d="M31.5,14.9L2,33.4c-1.2,0.8-2,2.1-2,3.6v27.4c0,2.1,1.5,3.8,3.6,4.2L6,68.9C6.2,69,6.4,69,6.6,69h26.1
	c1.4,0,2.8-0.7,3.6-2l8.1-12.7c0-0.1,0.1-0.2,0.1-0.2l10.2-18.5c0.4-0.6,0.5-1.3,0.5-2.1l-0.1-14.1c0-2.2-1.7-5.1-4-5.2L34,14.2
	C33.2,14.2,32.3,14.4,31.5,14.9z"/>
<g>
	<path class="st7" d="M35.8,57c-0.1-0.1-0.1-0.1-0.2-0.2c0,0,0,0,0,0c-0.1-0.1-0.1-0.2-0.2-0.4c0-0.5,0-1,0-1.5c-0.1,0-0.3,0-0.4,0
		c-1.2,0-2.4,0-3.5,0c-0.6,0-1.1-0.2-1.6-0.4c-0.4-0.2-0.8-0.6-1-1.1c-0.3-0.5-0.4-0.9-0.4-1.5c0-2.3,0-4.5,0-6.8c0-0.1,0-0.3,0-0.5
		c-0.1,0.1-0.3,0.1-0.4,0.2c-0.4,0.3-0.9,0.7-1.3,1.1c-0.4,0.3-0.8,0.6-1.2,0.9c-0.2,0.2-0.4,0.4-0.8,0.5c-0.1,0-0.2-0.1-0.4-0.1
		c-0.1-0.1-0.2-0.2-0.3-0.3c0-0.9,0-1.7,0-2.6c-0.1,0-0.2,0-0.3,0c-1.7,0-3.5,0-5.2,0c-0.3,0-0.5-0.1-0.8-0.1
		c-0.3,0-0.5-0.1-0.8-0.2c-0.5-0.2-0.9-0.4-1.2-0.7c-0.3-0.3-0.6-0.5-0.8-0.8c-0.2-0.4-0.4-0.8-0.5-1.2c-0.1-0.3-0.1-0.6-0.1-0.9
		c0-2.2,0-4.3,0-6.5c0-0.3,0.1-0.6,0.5-0.7c0.1,0,0.3,0,0.5,0c0,0,0.1,0.1,0.1,0.1c0.2,0.2,0.2,0.3,0.2,0.6c0,2.2,0,4.3,0,6.5
		c0,0.7,0.3,1.3,0.7,1.8c0.4,0.4,0.8,0.6,1.3,0.8c0,0,0,0,0,0c0.3-0.1,0.6,0.1,0.9,0.1c2.2,0,4.3,0,6.5,0c0.1,0.1,0.2,0.2,0.3,0.3
		c0.2,0.5,0.1,0.9,0.1,1.4c0,0.2,0,0.3,0,0.5c0.1,0,0.1-0.1,0.2-0.1c0.3-0.3,0.7-0.5,1.1-0.8c0.3-0.3,0.7-0.5,1-0.8
		c0.1-0.1,0.3-0.3,0.4-0.3c0.3-0.1,0.5-0.4,0.5-0.7c0.1-0.3,0.2-0.6,0.4-0.8c0.4-0.5,0.9-0.9,1.5-1.1c0.2,0,0.4-0.1,0.6-0.1
		c0.5,0,1,0,1.5,0c0,0,0.1-0.1,0.1-0.1c0-0.1,0-0.2,0-0.4c0-3.9,0-7.7,0-11.6c0-0.5-0.2-1-0.4-1.5c-0.5-0.5-0.9-1-1.7-1.1
		c-0.3,0-0.5-0.1-0.8-0.1c-3.9,0-7.8,0-11.7,0c-0.4,0-1.2,0.3-1.5,0.6c-0.4,0.4-0.6,0.6-0.8,1c-0.1,0.3-0.3,0.6-0.2,1
		c0,0.5,0,11.1,0,11.7c-0.1,0.1-0.2,0.3-0.3,0.5c-0.7,0-0.7,0-0.9-0.4c0-0.7,0-11.3,0-12c0-0.4,0.1-0.8,0.3-1.2
		c0.2-0.5,0.5-0.9,0.8-1.2c0.5-0.4,1-0.8,1.6-1c0.3-0.1,0.7-0.2,1-0.2c4,0,7.9,0,11.9,0c0.3,0,0.6,0.1,1,0.1c0-0.1,0-0.2,0-0.3
		c0-2.3,0-4.5,0-6.8c0-0.5,0.1-1,0.3-1.5c0.3-0.8,0.7-1.4,1.4-2c0.5-0.4,0.9-0.7,1.5-0.9c0.2-0.2,0.4-0.1,0.6-0.2
		c0.3-0.1,0.5-0.1,0.8-0.1c3.1,0,6.1,0,9.2,0c0.1,0,0.2,0,0.4,0c0.2,0,0.2,0.2,0.3,0.4c0,0.3,0.1,0.7-0.5,0.9c-2,0-4,0-6.1,0
		c-1.1,0-2.2,0-3.2,0c-0.5,0-1.1,0.2-1.5,0.4c-0.2,0.1-0.3,0.2-0.4,0.3c-0.1,0.1-0.2,0.2-0.3,0.3c-0.2,0.2-0.4,0.4-0.5,0.7
		c-0.1,0.2-0.2,0.4-0.3,0.6c-0.1,0.2-0.1,0.5-0.2,0.6c0,0,0,0.1,0,0.2c0,2.6,0,5.3,0,7.9c0.3,0.3,0.5,0.5,0.7,0.7
		c0.4,0.4,0.6,0.9,0.8,1.3c0,0.4,0.2,0.8,0.2,1.2c0,2.3,0,4.5,0,6.8c0,0.1,0,0.3,0,0.4c0.4,0.2,0.8,0.4,1.2,0.5
		c0.8,0.1,1.6,0.1,2.4,0.1c0.8,0,1.6,0,2.4,0c1.3,0,2.6,0,3.8,0c0.4,0.2,0.5,0.5,0.5,0.8c0,0.7,0,1.5,0,2.2c0.5-0.4,1-0.7,1.4-1.1
		c0.4-0.4,0.9-0.7,1.4-1.1c0.3-0.3,0.7-0.6,1.1-0.8c0.1-0.1,0.3-0.1,0.4-0.1c0.6,0,1.1,0,1.7,0c0.4,0,0.8,0,1.2-0.1
		c0.4-0.1,0.7-0.2,1-0.4c0.6-0.4,1.1-0.8,1.4-1.5c0.2-0.4,0.3-0.9,0.3-1.4c0-5.1,0-10.2,0-15.3c0-0.7-0.3-1.4-0.8-2
		c-0.3-0.3-0.6-0.6-0.9-0.8c-0.2-0.2-0.9-0.4-1.1-0.4c-0.9-0.2-11.9,0-12.9-0.1c-0.2-0.1-0.4-0.3-0.4-0.6c0-0.3,0.1-0.5,0.5-0.7
		c0.7,0,11.6,0,12.4,0c0.6,0,1.1,0.2,1.6,0.4c0.6,0.3,1.1,0.6,1.5,1c0.3,0.3,0.6,0.7,0.8,1.1c0.2,0.4,0.4,0.9,0.5,1.3
		c0.1,0.4,0.1,0.8,0.1,1.2c0,5,0,10,0,15.1c0,0.2,0,0.4-0.1,0.6c-0.1,0.2,0,0.4-0.1,0.5c-0.1,0.2-0.2,0.3-0.2,0.5
		c-0.2,0.5-0.5,0.9-0.8,1.3c-0.4,0.4-1,0.9-1.5,1.1c-0.5,0.2-0.9,0.4-1.5,0.4c-0.8,0.1-1.5,0-2.3,0.1c-0.2,0-0.4,0.1-0.6,0.2
		c-0.5,0.4-1.1,0.9-1.7,1.3c-0.3,0.2-0.6,0.5-0.9,0.7c-0.6,0.4-1.1,0.9-1.7,1.3c0,0-0.1,0.1-0.1,0.1c-0.2,0.2-0.4,0.3-0.7,0.2
		c-0.1-0.1-0.3-0.2-0.4-0.4c0-1.1,0-2.3,0-3.4c-0.2,0-0.3,0-0.4,0c-2.3,0-4.6,0-6.8,0c-0.6,0-1.2-0.1-1.7-0.3c0,0,0,0,0,0
		c0,0,0,0,0,0c0,1.1,0,2.2,0,3.3c0.1,0,0.3,0,0.4,0c1.9,0,3.7,0,5.6,0c0.5,0,0.9,0.1,1.3,0.4c0.5,0.3,1,0.8,1.2,1.4
		c0.1,0.3,0.3,0.7,0.2,1c0.2,0.5,0.1,1,0.1,1.5c0,0.5,0,1,0,1.5c0,0.2-0.1,0.4-0.1,0.6c-0.1,0.1-0.2,0.2-0.3,0.3c-0.2,0-0.4,0-0.6,0
		c-0.1-0.1-0.2-0.2-0.3-0.3c0-0.9,0-1.9,0-2.9c0-0.2,0.1-0.4,0-0.5c-0.1-0.2-0.1-0.4-0.1-0.5c-0.2-0.2-0.2-0.5-0.4-0.7
		c-0.2-0.2-0.5-0.3-0.8-0.5c-1.6,0-3.2,0-4.8,0c-1.4,0-2.9,0-4.3,0c-0.5,0-0.9,0.3-1.2,0.7c-0.1,0.1-0.2,0.3-0.3,0.5
		c0,2.9,0,5.9,0,8.9c0,0.7,0.6,1.4,1.2,1.6c0.2,0.1,0.3,0.1,0.5,0.1c1.6,0,3.1,0,4.7,0c0.1,0.1,0.3,0.2,0.5,0.4c0,0.4,0,0.7,0,1.1
		c0.2-0.2,0.4-0.3,0.6-0.4c0.3-0.3,0.7-0.6,1-0.8c0.2-0.1,0.4-0.3,0.7-0.2c0.3,0,0.6,0,0.9,0c0.4,0,0.8-0.2,1.1-0.5
		c0.2-0.2,0.4-0.4,0.5-0.8c0-0.2,0.1-0.6,0.1-0.9c0-0.3,0-6.7,0-7c0.1-0.1,0.3-0.2,0.4-0.3c0.1,0,0.3,0,0.4,0
		c0.1,0.1,0.3,0.2,0.4,0.3c0,0.2,0.1,6.4,0.1,6.6c0,0.2,0,0.4,0,0.6c0,0.3-0.1,0.6-0.1,0.9c0,0.3-0.2,0.5-0.2,0.8
		c-0.3,0.3-0.5,0.7-0.8,0.9c-0.3,0.2-0.6,0.4-1,0.5c-0.2,0.1-0.4,0.1-0.7,0.1c-0.3,0-0.7,0-1,0c-0.5,0.4-1,0.8-1.5,1.1
		c-0.3,0.2-0.6,0.5-0.9,0.7c-0.1,0.1-0.3,0.1-0.3,0.3C36.1,57,36,57,35.8,57z"/>
	<path class="st7" d="M40.6,32c-0.1,0.1-0.2,0.2-0.3,0.3c-1.3,0-2.5,0-3.8,0c-0.3,0-0.5-0.1-0.6-0.5c0-2.6,0-5.3,0-8
		c0-0.3,0.1-0.4,0.3-0.6c1.3,0,2.5,0,3.8,0c0.2,0,0.4,0,0.5,0.3c0.4-0.4,0.7-0.8,1.1-1.2c0.1-0.2,0.3-0.4,0.5-0.5
		c0.2-0.2,0.3-0.3,0.5-0.5c0.2-0.3,0.4-0.6,0.5-1c0.1-0.3,0.2-0.7,0.2-1c0-0.2,0.1-0.4,0.1-0.6c0.1-0.1,0.1-0.3,0.2-0.4
		c0.4-0.5,0.9-0.7,1.6-0.4c0.2,0.1,0.5,0.3,0.6,0.6c0.1,0.2,0.2,0.5,0.3,0.7c0.1,0.2,0.1,0.5,0.2,0.7c-0.1,0.3,0.1,0.5,0.1,0.8
		c0,0.3,0,0.5,0,0.8c-0.1,0.6-0.2,1.1-0.5,1.6c0,0,0,0.1,0,0.1c0.1,0,0.2,0,0.3,0c1,0,1.9,0,2.9,0c0.6,0,1.2,0.5,1.5,0.9
		c0.1,0.2,0.2,0.3,0.2,0.5c0,2.2,0,4.3,0,6.5c0,0.6-0.3,1-0.8,1.3c-0.3,0.2-0.7,0.3-1.1,0.3c-1.9,0-3.8,0-5.7,0
		C42.2,32.7,41.4,32.5,40.6,32z M40.7,25.4c0,1.7,0,3.4,0,5c0.1,0.1,0.2,0.2,0.3,0.3c0.3,0.2,0.6,0.4,1,0.5c0.4,0.1,0.8,0.2,1.1,0.2
		c1.9,0,3.9,0,5.8,0c0.2,0,0.4,0,0.5-0.2c0-2.2,0-4.4,0-6.5c-0.1-0.1-0.1-0.2-0.2-0.2c-1.5,0-3,0-4.5,0c-0.1-0.1-0.3-0.3-0.4-0.4
		c0-0.2-0.1-0.3,0.1-0.5c0-0.4,0.2-0.7,0.4-1c0.2-0.5,0.3-1,0.4-1.6c0-0.2,0-0.5-0.1-0.7c-0.1-0.4-0.2-0.7-0.4-1.1
		c0,0-0.1-0.1-0.2-0.1c0,0.4,0,0.7-0.1,1.1c-0.1,0.3-0.1,0.6-0.3,0.8c-0.2,0.6-0.6,1.1-1,1.5c-0.4,0.5-0.8,0.9-1.2,1.4
		C41.6,24.4,41.1,24.9,40.7,25.4z M39.4,31c0-2.2,0-4.3,0-6.4c-0.7,0-1.4,0-2.1,0c0,0,0,0,0,0c0,0,0,0,0,0c0,2.1,0,4.3,0,6.4
		C38,31,38.7,31,39.4,31z"/>
	<path class="st7" d="M21.9,35.4c0.1-0.1,0.1-0.1,0.1-0.1c0-0.5,0.2-1,0.2-1.5c-0.1,0-0.2,0-0.3,0c-0.6,0-1.3,0-1.9,0
		c-0.5,0-0.6,0-0.7-0.5c0,0-0.1-0.1-0.1-0.1c0-0.1,0.1-0.2,0.1-0.3c0,0,0.1-0.1,0.2-0.2c0.1-0.1,0.3-0.2,0.5-0.2c0.8,0,1.6,0,2.4,0
		c0.1-0.2,0.2-0.3,0.1-0.5c0-0.2,0-0.3,0.1-0.4c0-0.1,0-0.3,0.1-0.4c-0.1-0.3,0.1-0.5,0.1-0.7c0-0.1,0.1-0.3,0.1-0.5
		c0.1-0.1,0.2-0.2,0.3-0.3c0.2,0,0.4,0,0.6,0c0.1,0.1,0.2,0.2,0.3,0.3c0,0.1,0,0.2,0,0.4c0,0.2,0.1,0.4-0.1,0.6
		c-0.1,0.1,0,0.3-0.1,0.5c-0.1,0.2-0.1,0.5-0.1,0.8c0,0.1,0,0.2-0.1,0.3c0.5,0,1,0,1.5,0c0,0,0.1-0.1,0.1-0.1c0.1-0.2,0-0.4,0.1-0.5
		c0.1-0.1-0.1-0.4,0.1-0.5c-0.1-0.3,0.1-0.5,0.1-0.7c0-0.2,0-0.4,0.1-0.6c0.1-0.2,0.2-0.3,0.4-0.4c0.2,0,0.3,0,0.6,0
		c0.1,0.1,0.2,0.1,0.2,0.3c0.1,0.2,0.2,0.3,0.1,0.5c0,0,0,0.1,0,0.1c0,0.5-0.2,0.9-0.2,1.4c0,0.2-0.1,0.3-0.1,0.5c0.7,0,1.3,0,1.9,0
		c0.5,0.2,0.6,0.5,0.5,0.9c-0.1,0.1-0.3,0.3-0.4,0.4c-0.7,0-1.5,0-2.3,0c-0.1,0.5-0.2,1-0.3,1.5c0,0,0.1,0.1,0.1,0.1
		c0.8,0,1.7,0,2.5,0c0.5,0.3,0.5,0.5,0.3,1.1c-0.3,0.1-0.5,0.2-0.8,0.2c-0.8,0-1.5,0-2.3,0c-0.1,0.8-0.3,1.6-0.4,2.5
		c-0.1,0.1-0.2,0.2-0.4,0.4c-0.2,0-0.3,0-0.5,0c-0.1-0.1-0.2-0.2-0.2-0.2c-0.1-0.1-0.2-0.3-0.1-0.5c0.1-0.2,0.1-0.4,0.1-0.6
		c0.2-0.2,0.1-0.4,0.2-0.7c0.1-0.2,0.1-0.5,0.1-0.8c-0.5,0-1,0-1.5,0c-0.1,0.5-0.2,1-0.3,1.4c0,0.2-0.1,0.4-0.1,0.6
		c0,0.3-0.1,0.5-0.3,0.6c0,0-0.1,0.1-0.1,0.1c-0.2,0-0.4,0-0.5,0c-0.1-0.1-0.2-0.2-0.4-0.4c0-0.2-0.1-0.5,0-0.6
		c0.1-0.2,0-0.4,0.1-0.6c0.1-0.1,0-0.4,0.1-0.6c0.1-0.2,0-0.4,0.2-0.7c-0.3,0-0.6,0-0.9,0c-0.5,0-0.9,0.1-1.4-0.1
		c0,0-0.1-0.2-0.3-0.3c0-0.2,0-0.4,0-0.6c0.1-0.1,0.2-0.2,0.3-0.3C20.3,35.4,21.1,35.4,21.9,35.4z M25.1,33.8c-0.6,0-1.1,0-1.6,0
		c-0.1,0.5-0.2,1.1-0.3,1.6c0.5,0,1,0,1.5,0C25,34.9,24.9,34.4,25.1,33.8z"/>
	<path class="st7" d="M35.6,45.2c0.4-0.3,0.8-0.5,1.3-0.4c0.3,0,0.6,0,0.9,0.2c0.5,0.2,0.8,0.5,1.2,1c0.3,0.6,0.4,1.2,0.3,1.8
		c0,0.3-0.1,0.6-0.3,0.8c-0.2,0.3-0.3,0.6-0.6,0.9c-0.5,0.5-1.1,1-1.7,1.3c-0.3,0.2-0.6,0.3-0.9,0.5c-0.4,0.1-0.8-0.2-1.1-0.4
		c-0.3-0.2-0.6-0.4-0.8-0.6c-0.7-0.5-1.3-1-1.7-1.9c-0.1-0.3-0.2-0.6-0.2-0.9c0-0.3,0-0.6,0.1-1c0.2-0.5,0.4-1,0.9-1.3
		c0.2-0.1,0.4-0.3,0.6-0.3c0.3-0.1,0.6-0.1,0.9-0.1c0.4,0,0.7,0.1,1,0.3C35.4,45,35.5,45.1,35.6,45.2z M35.6,46.9
		c-0.3-0.1-0.5-0.2-0.6-0.5c-0.1-0.3-0.4-0.4-0.7-0.4c-0.1,0-0.3,0-0.3,0c-0.2,0.1-0.3,0.2-0.4,0.3c-0.1,0.2-0.2,0.3-0.3,0.5
		c0,0.2,0,0.4,0,0.6c0,0.2,0.1,0.4,0.2,0.5c0.2,0.4,0.5,0.7,0.8,0.9c0.4,0.3,0.9,0.6,1.4,0.9c0.1-0.1,0.1-0.1,0.1-0.1
		c0.7-0.3,1.3-0.8,1.8-1.3c0.3-0.3,0.5-0.7,0.5-1.2c0-0.2,0-0.4-0.1-0.7c-0.2-0.1-0.4-0.3-0.6-0.5c-0.3,0-0.5,0-0.7,0
		c-0.1,0.1-0.3,0.2-0.4,0.3C36.1,46.7,35.9,46.8,35.6,46.9z"/>
</g>
</svg>
